<!-- Icona app, estratta dalla sezione "01 · ICONA APP" di design/meshsrp-logo.svg,
     isolata in un viewBox 0 0 200 200 per l'uso come icona PWA. -->
<svg viewBox="0 0 200 200" xmlns="http://www.w3.org/2000/svg">
  <rect x="0" y="0" width="200" height="200" rx="18" fill="#151915" stroke="#2a2f2a" stroke-width="1.5"/>

  <g stroke="#3a423a" stroke-width="4" fill="none">
    <path d="M 22 26 v-8 h 8"/>
    <path d="M 178 26 v-8 h-8"/>
    <path d="M 22 174 v8 h8"/>
    <path d="M 178 174 v8 h-8"/>
  </g>

  <g transform="translate(100,112)">
    <line x1="0" y1="-50" x2="-48" y2="36" stroke="#6fcf6f" stroke-width="7" stroke-linecap="square"/>
    <line x1="0" y1="-50" x2="48" y2="36" stroke="#6fcf6f" stroke-width="7" stroke-linecap="square"/>
    <line x1="-48" y1="36" x2="48" y2="36" stroke="#6fcf6f" stroke-width="7" stroke-linecap="square" stroke-dasharray="12 9"/>
    <rect x="-12" y="-62" width="24" height="24" transform="rotate(45 0 -50)" fill="#0d0f0d" stroke="#e0a458" stroke-width="7"/>
    <rect x="-60" y="24" width="24" height="24" transform="rotate(45 -48 36)" fill="#0d0f0d" stroke="#6fcf6f" stroke-width="7"/>
    <rect x="36" y="24" width="24" height="24" transform="rotate(45 48 36)" fill="#0d0f0d" stroke="#6fcf6f" stroke-width="7"/>
    <path d="M -16 -76 L 0 -86 L 16 -76" fill="none" stroke="#e0a458" stroke-width="6" stroke-linecap="square" stroke-linejoin="miter"/>
    <path d="M -26 -90 L 0 -106 L 26 -90" fill="none" stroke="#e0a458" stroke-width="6" stroke-linecap="square" stroke-linejoin="miter" opacity="0.5"/>
  </g>
</svg>
